<mxfile host="app.diagrams.net" modified="2023-07-11T03:43:31.472Z" agent="Mozilla/5.0 (Macintosh; Intel Mac OS X 10_15_7) AppleWebKit/537.36 (KHTML, like Gecko) Chrome/113.0.0.0 Safari/537.36" etag="RKs32JOd8Z2EY5JHDeGC" version="21.6.1" type="github">
  <diagram id="prtHgNgQTEPvFCAcTncT" name="Page-1">
    <mxGraphModel dx="954" dy="652" grid="1" gridSize="10" guides="1" tooltips="1" connect="1" arrows="1" fold="1" page="1" pageScale="1" pageWidth="827" pageHeight="1169" math="0" shadow="0">
      <root>
        <mxCell id="0" />
        <mxCell id="1" parent="0" />
        <mxCell id="uOXKOe0CaD_opCTcT0az-1" value="" style="endArrow=none;dashed=1;html=1;rounded=0;" parent="1" edge="1">
          <mxGeometry width="50" height="50" relative="1" as="geometry">
            <mxPoint x="207" y="440" as="sourcePoint" />
            <mxPoint x="657" y="440" as="targetPoint" />
          </mxGeometry>
        </mxCell>
        <mxCell id="uOXKOe0CaD_opCTcT0az-2" value="" style="sketch=0;outlineConnect=0;fontColor=#232F3E;gradientColor=none;fillColor=#2E27AD;strokeColor=none;dashed=0;verticalLabelPosition=bottom;verticalAlign=top;align=center;html=1;fontSize=12;fontStyle=0;aspect=fixed;pointerEvents=1;shape=mxgraph.aws4.rds_mysql_instance;" parent="1" vertex="1">
          <mxGeometry x="235" y="609" width="35" height="35" as="geometry" />
        </mxCell>
        <mxCell id="uOXKOe0CaD_opCTcT0az-3" value="" style="sketch=0;outlineConnect=0;fontColor=#232F3E;gradientColor=none;strokeColor=#ffffff;fillColor=#232F3E;dashed=0;verticalLabelPosition=middle;verticalAlign=bottom;align=center;html=1;whiteSpace=wrap;fontSize=10;fontStyle=1;spacing=3;shape=mxgraph.aws4.productIcon;prIcon=mxgraph.aws4.elasticsearch_service;" parent="1" vertex="1">
          <mxGeometry x="587" y="609" width="40" height="45" as="geometry" />
        </mxCell>
        <mxCell id="uOXKOe0CaD_opCTcT0az-4" value="" style="image;aspect=fixed;html=1;points=[];align=center;fontSize=12;image=img/lib/azure2/databases/Cache_Redis.svg;" parent="1" vertex="1">
          <mxGeometry x="378.38" y="480" width="49.23" height="40" as="geometry" />
        </mxCell>
        <mxCell id="uOXKOe0CaD_opCTcT0az-5" value="" style="endArrow=none;dashed=1;html=1;rounded=0;" parent="1" edge="1">
          <mxGeometry width="50" height="50" relative="1" as="geometry">
            <mxPoint x="207" y="570" as="sourcePoint" />
            <mxPoint x="657" y="570" as="targetPoint" />
          </mxGeometry>
        </mxCell>
        <mxCell id="uOXKOe0CaD_opCTcT0az-6" value="上层服务" style="text;html=1;align=center;verticalAlign=middle;resizable=0;points=[];autosize=1;strokeColor=none;fillColor=none;" parent="1" vertex="1">
          <mxGeometry x="200" y="312" width="70" height="30" as="geometry" />
        </mxCell>
        <mxCell id="uOXKOe0CaD_opCTcT0az-7" value="" style="endArrow=classic;html=1;rounded=0;strokeColor=#000000;" parent="1" edge="1">
          <mxGeometry width="50" height="50" relative="1" as="geometry">
            <mxPoint x="270" y="328" as="sourcePoint" />
            <mxPoint x="330" y="245" as="targetPoint" />
          </mxGeometry>
        </mxCell>
        <mxCell id="uOXKOe0CaD_opCTcT0az-8" value="" style="endArrow=classic;html=1;rounded=0;strokeColor=#000000;exitX=1.057;exitY=1.1;exitDx=0;exitDy=0;exitPerimeter=0;entryX=0.029;entryY=0.533;entryDx=0;entryDy=0;entryPerimeter=0;" parent="1" target="uOXKOe0CaD_opCTcT0az-10" edge="1">
          <mxGeometry width="50" height="50" relative="1" as="geometry">
            <mxPoint x="270" y="330" as="sourcePoint" />
            <mxPoint x="327.01" y="378" as="targetPoint" />
          </mxGeometry>
        </mxCell>
        <mxCell id="uOXKOe0CaD_opCTcT0az-9" value="orderindex" style="text;html=1;align=center;verticalAlign=middle;resizable=0;points=[];autosize=1;strokeColor=none;fillColor=none;" parent="1" vertex="1">
          <mxGeometry x="409" y="360" width="80" height="30" as="geometry" />
        </mxCell>
        <mxCell id="uOXKOe0CaD_opCTcT0az-10" value="基础服务" style="text;html=1;align=center;verticalAlign=middle;resizable=0;points=[];autosize=1;strokeColor=none;fillColor=none;" parent="1" vertex="1">
          <mxGeometry x="327" y="386" width="70" height="30" as="geometry" />
        </mxCell>
        <mxCell id="uOXKOe0CaD_opCTcT0az-11" value="user-basic —— 增加 Cache 缓存" style="text;html=1;align=center;verticalAlign=middle;resizable=0;points=[];autosize=1;strokeColor=none;fillColor=none;fontColor=#B5739D;" parent="1" vertex="1">
          <mxGeometry x="409" y="406" width="200" height="30" as="geometry" />
        </mxCell>
        <mxCell id="uOXKOe0CaD_opCTcT0az-12" value="" style="strokeWidth=2;html=1;shape=mxgraph.flowchart.annotation_2;align=left;labelPosition=right;pointerEvents=1;" parent="1" vertex="1">
          <mxGeometry x="400" y="380" width="10" height="42.5" as="geometry" />
        </mxCell>
        <mxCell id="uOXKOe0CaD_opCTcT0az-13" value="&lt;font color=&quot;#b5739d&quot;&gt;Redis&lt;/font&gt;" style="text;html=1;align=center;verticalAlign=middle;resizable=0;points=[];autosize=1;strokeColor=none;fillColor=none;" parent="1" vertex="1">
          <mxGeometry x="377.61" y="520" width="50" height="30" as="geometry" />
        </mxCell>
        <mxCell id="uOXKOe0CaD_opCTcT0az-14" value="ES" style="text;html=1;align=center;verticalAlign=middle;resizable=0;points=[];autosize=1;strokeColor=none;fillColor=none;" parent="1" vertex="1">
          <mxGeometry x="587" y="644" width="40" height="30" as="geometry" />
        </mxCell>
        <mxCell id="uOXKOe0CaD_opCTcT0az-15" value="Mysql" style="text;html=1;align=center;verticalAlign=middle;resizable=0;points=[];autosize=1;strokeColor=none;fillColor=none;" parent="1" vertex="1">
          <mxGeometry x="227.5" y="644" width="50" height="30" as="geometry" />
        </mxCell>
        <mxCell id="uOXKOe0CaD_opCTcT0az-16" value="应用服务" style="text;html=1;align=center;verticalAlign=middle;resizable=0;points=[];autosize=1;strokeColor=none;fillColor=none;" parent="1" vertex="1">
          <mxGeometry x="325" y="228" width="70" height="30" as="geometry" />
        </mxCell>
        <mxCell id="uOXKOe0CaD_opCTcT0az-17" value="" style="strokeWidth=2;html=1;shape=mxgraph.flowchart.annotation_2;align=left;labelPosition=right;pointerEvents=1;" parent="1" vertex="1">
          <mxGeometry x="489" y="362" width="10" height="28" as="geometry" />
        </mxCell>
        <mxCell id="uOXKOe0CaD_opCTcT0az-18" value="下线非P0 group" style="text;html=1;align=center;verticalAlign=middle;resizable=0;points=[];autosize=1;strokeColor=none;fillColor=none;fontColor=#B5739D;" parent="1" vertex="1">
          <mxGeometry x="499" y="348" width="110" height="30" as="geometry" />
        </mxCell>
        <mxCell id="uOXKOe0CaD_opCTcT0az-19" value="拆分 P0、P1服务" style="text;html=1;align=center;verticalAlign=middle;resizable=0;points=[];autosize=1;strokeColor=none;fillColor=none;fontColor=#B5739D;" parent="1" vertex="1">
          <mxGeometry x="500" y="376" width="120" height="30" as="geometry" />
        </mxCell>
        <mxCell id="uOXKOe0CaD_opCTcT0az-20" value="" style="strokeWidth=2;html=1;shape=mxgraph.flowchart.annotation_2;align=left;labelPosition=right;pointerEvents=1;" parent="1" vertex="1">
          <mxGeometry x="491" y="106" width="10" height="140" as="geometry" />
        </mxCell>
        <mxCell id="uOXKOe0CaD_opCTcT0az-21" value="&lt;font color=&quot;#b5739d&quot;&gt;order-control —— 调整加载时序（体验）&lt;/font&gt;" style="text;html=1;align=left;verticalAlign=middle;resizable=0;points=[];autosize=1;strokeColor=none;fillColor=none;" parent="1" vertex="1">
          <mxGeometry x="513" y="87" width="240" height="30" as="geometry" />
        </mxCell>
        <mxCell id="uOXKOe0CaD_opCTcT0az-22" value="支付相关 —— 某些场景 &amp;amp; 下掉通道" style="text;html=1;align=left;verticalAlign=middle;resizable=0;points=[];autosize=1;strokeColor=none;fillColor=none;" parent="1" vertex="1">
          <mxGeometry x="513" y="117" width="210" height="30" as="geometry" />
        </mxCell>
        <mxCell id="uOXKOe0CaD_opCTcT0az-23" value="营销、反作弊" style="text;html=1;align=left;verticalAlign=middle;resizable=0;points=[];autosize=1;strokeColor=none;fillColor=none;" parent="1" vertex="1">
          <mxGeometry x="513" y="147" width="100" height="30" as="geometry" />
        </mxCell>
        <mxCell id="uOXKOe0CaD_opCTcT0az-24" value="oms、shop、price" style="text;html=1;align=left;verticalAlign=middle;resizable=0;points=[];autosize=1;strokeColor=none;fillColor=none;" parent="1" vertex="1">
          <mxGeometry x="513" y="177" width="120" height="30" as="geometry" />
        </mxCell>
        <mxCell id="uOXKOe0CaD_opCTcT0az-25" value="策略相关 —— 获取上门时间、附近骑士数（done）" style="text;html=1;align=left;verticalAlign=middle;resizable=0;points=[];autosize=1;strokeColor=none;fillColor=none;" parent="1" vertex="1">
          <mxGeometry x="512" y="207" width="300" height="30" as="geometry" />
        </mxCell>
        <mxCell id="uOXKOe0CaD_opCTcT0az-26" value="大网相关 —— 月结卡、aoi 信息" style="text;html=1;align=left;verticalAlign=middle;resizable=0;points=[];autosize=1;strokeColor=none;fillColor=none;" parent="1" vertex="1">
          <mxGeometry x="512" y="237" width="190" height="30" as="geometry" />
        </mxCell>
        <mxCell id="uOXKOe0CaD_opCTcT0az-27" value="" style="strokeWidth=2;html=1;shape=mxgraph.flowchart.annotation_2;align=left;labelPosition=right;pointerEvents=1;" parent="1" vertex="1">
          <mxGeometry x="167" y="326.25" width="20" height="308.75" as="geometry" />
        </mxCell>
        <mxCell id="uOXKOe0CaD_opCTcT0az-28" value="MQ" style="text;html=1;align=center;verticalAlign=middle;resizable=0;points=[];autosize=1;strokeColor=none;fillColor=none;" parent="1" vertex="1">
          <mxGeometry x="87" y="465.62" width="40" height="30" as="geometry" />
        </mxCell>
        <mxCell id="uOXKOe0CaD_opCTcT0az-30" value="" style="strokeWidth=2;html=1;shape=mxgraph.flowchart.annotation_2;align=left;labelPosition=right;pointerEvents=1;" parent="1" vertex="1">
          <mxGeometry x="396" y="178" width="10" height="132" as="geometry" />
        </mxCell>
        <mxCell id="uOXKOe0CaD_opCTcT0az-31" value="外部依赖" style="text;html=1;align=center;verticalAlign=middle;resizable=0;points=[];autosize=1;strokeColor=none;fillColor=none;" parent="1" vertex="1">
          <mxGeometry x="413.5" y="161" width="70" height="30" as="geometry" />
        </mxCell>
        <mxCell id="uOXKOe0CaD_opCTcT0az-32" value="内部链路：之前 open 和 C 的梳理完，针对不合理的地方，做了优化。open - done；c - 完善中" style="text;html=1;align=center;verticalAlign=middle;resizable=0;points=[];autosize=1;strokeColor=none;fillColor=none;fontColor=#B5739D;" parent="1" vertex="1">
          <mxGeometry x="414" y="294" width="520" height="30" as="geometry" />
        </mxCell>
        <mxCell id="fwd9VYUvt1YcdVPw9wCm-1" value="&lt;ol&gt;&lt;li&gt;&lt;b style=&quot;color: rgb(50, 50, 50); font-family: 微软雅黑; font-size: 13px; background-color: rgba(255, 255, 255, 0.01);&quot;&gt;open_crm ——&amp;nbsp;&lt;/b&gt;用户&amp;amp;钱包相关&lt;br&gt;&lt;/li&gt;&lt;li&gt;&lt;div style=&quot;resize: none; outline: none; font-size: 13px; color: rgb(50, 50, 50); font-family: 微软雅黑;&quot;&gt;&lt;b style=&quot;background-color: initial;&quot;&gt;platform_order ——&amp;nbsp;&lt;/b&gt;订单索引（A、B、C）&lt;br&gt;&lt;/div&gt;&lt;/li&gt;&lt;li&gt;&lt;div style=&quot;resize: none; outline: none; font-size: 13px; color: rgb(50, 50, 50); font-family: 微软雅黑;&quot;&gt;&lt;b style=&quot;text-align: center; background-color: rgba(255, 255, 255, 0.01);&quot;&gt;crm_record ——&amp;nbsp;&lt;/b&gt;订单相关日志信息&lt;br&gt;&lt;/div&gt;&lt;/li&gt;&lt;/ol&gt;" style="text;html=1;align=left;verticalAlign=middle;resizable=0;points=[];autosize=1;strokeColor=none;fillColor=none;" vertex="1" parent="1">
          <mxGeometry x="207" y="657" width="320" height="80" as="geometry" />
        </mxCell>
        <mxCell id="fwd9VYUvt1YcdVPw9wCm-2" value="&lt;b style=&quot;color: rgb(50, 50, 50); font-family: 微软雅黑; font-size: 13px;&quot;&gt;1、order_index ——&amp;nbsp;&lt;/b&gt;订单索引（A、B、C特定场景）" style="text;html=1;align=center;verticalAlign=middle;resizable=0;points=[];autosize=1;strokeColor=none;fillColor=none;" vertex="1" parent="1">
          <mxGeometry x="570" y="670" width="320" height="30" as="geometry" />
        </mxCell>
        <mxCell id="fwd9VYUvt1YcdVPw9wCm-3" value="&lt;div style=&quot;text-align: left;&quot;&gt;&lt;span style=&quot;background-color: initial;&quot;&gt;OPEN&lt;/span&gt;&lt;/div&gt;1、对外 KA 的域名替换（麦当劳、瑞幸）&lt;br&gt;&lt;div style=&quot;text-align: left;&quot;&gt;&lt;span style=&quot;background-color: initial;&quot;&gt;2、&lt;/span&gt;&lt;/div&gt;" style="text;html=1;align=center;verticalAlign=middle;resizable=0;points=[];autosize=1;strokeColor=none;fillColor=none;" vertex="1" parent="1">
          <mxGeometry x="70" y="790" width="240" height="60" as="geometry" />
        </mxCell>
      </root>
    </mxGraphModel>
  </diagram>
</mxfile>
